<!DOCTYPE svg PUBLIC "-//W3C//DTD SVG 1.1//EN" "http://www.w3.org/Graphics/SVG/1.1/DTD/svg11.dtd">
<svg version="1.1" id="Capa_1" xmlns="http://www.w3.org/2000/svg" xmlns:xlink="http://www.w3.org/1999/xlink" x="0px" y="0px" viewBox="0 0 344.34 344.34" style="enable-background:new 0 0 344.34 344.34;" xml:space="preserve">
	<path d="M342.879,253.96l-25.006-32.354c0.657-3.739,1.083-7.539,1.256-11.384c0.005-0.108,0.007-0.217,0.007-0.326l-0.213-124.934
		c-0.013-15.054-12.264-27.292-27.315-27.292c-0.007,0-0.016,0-0.022,0c-14.873,0.013-26.988,11.973-27.279,26.784
		c-4.796-0.573-9.722,0.119-14.23,2.09l-46.657-60.523c-9.196-11.929-26.384-14.152-38.311-4.956
		c-3.976,3.065-6.966,7.069-8.75,11.625c-3.908-3.203-8.637-5.265-13.773-5.929c-7.24-0.936-14.403,1.001-20.181,5.457
		c-10.244,7.897-13.322,21.683-8.167,32.975c-4.756,0.552-9.426,2.355-13.485,5.485c-11.929,9.196-14.152,26.381-4.957,38.31
		l4.197,5.445l-42.027,39.748c-16.635,15.731-26.321,36.746-27.494,59.484L2.61,236.101c-3.005,2.42-3.485,6.816-1.073,9.828
		l64.391,80.393c1.383,1.726,3.416,2.625,5.469,2.625c1.522,0,3.056-0.495,4.341-1.513l27.948-22.133
		c6.561,1.121,13.234,1.5,19.896,1.128c0.108-0.006,0.217-0.015,0.324-0.026l103.466-10.642l22.85,29.641
		c1.134,1.47,2.805,2.43,4.646,2.668c0.3,0.039,0.6,0.058,0.898,0.058c1.538,0,3.043-0.507,4.273-1.456l81.575-62.886
		c1.472-1.134,2.432-2.807,2.669-4.65C344.52,257.292,344.015,255.43,342.879,253.96z M278.292,84.998
		c-0.006-7.342,5.963-13.321,13.305-13.327c0,0,0.007,0,0.011,0c7.337,0,13.309,5.966,13.315,13.31l0.213,124.773
		c-1.028,21.847-11.535,42.018-28.843,55.361c-1.172,0.903-2.374,1.756-3.589,2.584c0.059-1.331,0.021-2.676-0.117-4.025
		c-1.527-14.982-14.961-25.925-29.954-24.401l-19.918,2.056l72.489-68.559c10.943-10.349,11.426-27.671,1.077-38.614
		c-3.523-3.725-7.854-6.235-12.467-7.521c6.853-10.35,5.961-24.448-2.926-33.845c-0.819-0.865-1.686-1.658-2.585-2.393
		L278.292,84.998z M168.579,40.99c0.456-3.527,2.259-6.666,5.075-8.837c5.814-4.483,14.193-3.399,18.676,2.416l24.835,32.216
		c-5.732,0.714-11.062,3.214-15.335,7.255l-7.342,6.944l-23.242-30.148c-0.002-0.003-0.004-0.007-0.007-0.01
		C169.068,48.01,168.123,44.517,168.579,40.99z M130.95,43.305c2.817-2.172,6.312-3.116,9.838-2.66
		c3.527,0.456,6.666,2.258,8.837,5.076l14.892,19.317c-0.207-0.01-0.413-0.027-0.62-0.032c-7.311-0.208-14.23,2.446-19.53,7.459
		l-4.482,4.239l-0.819-1.063c-0.002-0.002-0.003-0.005-0.005-0.007c-0.003-0.004-0.007-0.008-0.01-0.013L128.534,61.98
		C124.052,56.165,125.136,47.788,130.95,43.305z M106.882,100.44c-4.482-5.815-3.398-14.192,2.416-18.675
		c5.813-4.482,14.188-3.399,18.671,2.411l1.692,2.195l-4.833,4.571c-0.01,0.009-0.02,0.019-0.029,0.028l-14.584,13.793
		L106.882,100.44z M122.639,292.458c-6.489,0.352-12.999-0.149-19.354-1.483c-2.029-0.427-4.153,0.072-5.783,1.363l-24.999,19.798
		l-55.674-69.51l24.921-20.069c1.622-1.306,2.578-3.267,2.608-5.348c0.3-20.204,8.548-38.976,23.226-52.856l46.609-44.081
		c0.017-0.016,0.033-0.031,0.049-0.047l20.986-19.848c0.01-0.009,0.02-0.019,0.029-0.028l8.547-8.083
		c0.056-0.051,0.11-0.103,0.164-0.155l10.018-9.475c2.585-2.444,5.982-3.735,9.521-3.636c3.556,0.099,6.859,1.577,9.303,4.161
		c2.444,2.584,3.735,5.965,3.637,9.52c-0.1,3.555-1.577,6.859-4.161,9.303c-0.002,0.002-0.004,0.004-0.006,0.006l-44.299,41.896
		c-2.81,2.657-2.933,7.087-0.276,9.896c1.377,1.456,3.23,2.19,5.087,2.19c1.727,0,3.456-0.635,4.809-1.914l73.851-69.846
		c2.585-2.444,5.98-3.731,9.521-3.636c3.556,0.099,6.859,1.577,9.303,4.161c2.444,2.584,3.735,5.965,3.637,9.52
		c-0.1,3.555-1.577,6.859-4.161,9.303c-0.002,0.002-0.005,0.005-0.007,0.008l-73.843,69.838c-2.81,2.657-2.933,7.087-0.276,9.896
		c2.657,2.809,7.088,2.932,9.896,0.276l86.377-81.692c5.337-5.045,13.779-4.809,18.823,0.525c5.045,5.334,4.81,13.778-0.524,18.823
		l-86.376,81.692c-2.81,2.657-2.933,7.087-0.276,9.896c1.377,1.456,3.229,2.19,5.087,2.19c1.727,0,3.456-0.635,4.809-1.914
		l73.851-69.846c5.334-5.044,13.778-4.809,18.823,0.525c5.045,5.334,4.81,13.778-0.524,18.823l-87.468,82.724
		c-2.179,2.061-2.803,5.28-1.553,8.005c1.252,2.726,4.102,4.353,7.081,4.043l40.416-4.172c7.301-0.74,13.853,4.591,14.598,11.896
		c0.361,3.538-0.678,7.005-2.925,9.762c-2.246,2.757-5.433,4.474-8.977,4.835L122.639,292.458z M257.035,311.309l-13.285-17.234
		l4.434-0.456c4.125-0.421,8.015-1.742,11.452-3.841c9.064-3.115,17.544-7.671,25.204-13.576
		c12.868-9.919,22.571-23.013,28.334-37.782l14.342,18.556L257.035,311.309z"/>
</svg>
