<svg viewBox="0 0 25 64" version="1.1" xmlns="http://www.w3.org/2000/svg" xmlns:xlink="http://www.w3.org/1999/xlink">
<path id="path0_fill" d="M 2.09442 62.9968C 2.96349 62.0955 3.97919 60.6458 5.09518 58.7138C 5.8744 57.3649 5.95569 57.2903 6.26401 57.6414C 6.64077 58.0704 6.94427 59.8317 6.70134 60.1793C 6.61286 60.3058 6.34695 60.4819 6.11042 60.5706C 5.69484 60.7263 5.69829 60.7463 6.21297 61.1649C 6.59946 61.4793 6.93921 61.5668 7.45154 61.4838C 8.57674 61.3017 9.2621 60.4117 9.78948 58.4477C 9.94787 57.8579 10.5589 55.9758 11.1474 54.2652C 11.7358 52.5547 12.2221 50.9224 12.2279 50.6378C 12.2338 50.3532 12.385 49.6294 12.564 49.0291C 12.7431 48.4289 13.2725 46.5973 13.7405 44.9588C 14.2085 43.3203 14.7211 41.8242 14.8795 41.6342C 15.038 41.4442 15.4037 40.8162 15.6921 40.2386C 15.9805 39.661 17.0731 38.3097 18.12 37.2357L 20.0236 35.2831L 19.0108 35.2168C 17.9226 35.1456 17.545 35.2971 18.0441 35.6049C 18.4166 35.8345 18.2069 36.0936 17.6131 36.1372C 17.3761 36.1546 17.0406 36.3556 16.8674 36.5839C 16.5616 36.9872 16.5525 36.9849 16.5458 36.5053C 16.5421 36.2337 16.7286 35.6546 16.9604 35.2184C 17.819 33.6026 18.0643 32.9002 18.2662 31.4805C 18.4866 29.9301 18.7345 28.8919 20.1495 23.5936C 20.3858 22.7088 20.7919 21.068 21.052 19.9473C 21.3121 18.8266 21.718 17.3479 21.9541 16.6613C 22.293 15.6757 22.3516 15.1406 22.2327 14.1188C 22.0972 12.9535 22.0492 12.8575 21.751 13.1549C 21.5689 13.3365 21.3918 13.8533 21.3574 14.3033C 21.323 14.7532 21.2892 15.1937 21.2822 15.2822C 21.2752 15.3707 21.1243 15.4431 20.9469 15.4431C 20.7211 15.4431 20.6244 15.6702 20.6244 16.2005C 20.6244 16.6883 20.5052 17.0036 20.2895 17.0861C 20.1053 17.1566 20.0055 17.3466 20.0678 17.5084C 20.13 17.6701 20.1113 17.803 20.0264 17.8038C 19.7559 17.8062 19.1358 19.0742 19.3426 19.2017C 19.4573 19.2724 19.4316 19.4977 19.2815 19.7374C 19.0907 20.0422 19.0858 20.2142 19.2628 20.3908C 19.5519 20.6792 19.1742 21.5251 18.5526 21.9816C 18.1759 22.2582 18.1744 22.2848 18.5279 22.4215C 19.0418 22.6202 19.0011 23.0978 18.4451 23.3946C 18.1374 23.5589 18.0681 23.6903 18.235 23.7932C 18.4189 23.9065 18.3957 24.1576 18.1463 24.753C 17.8135 25.5476 17.8153 25.5573 18.2701 25.4133C 18.6767 25.2845 18.713 25.3271 18.5745 25.7709C 18.4881 26.048 18.3334 26.3068 18.2307 26.3462C 18.1281 26.3855 18.0441 26.5437 18.0441 26.6977C 18.0441 26.8517 17.9232 26.9643 17.7754 26.9479C 17.6275 26.9315 17.5066 27.0146 17.5066 27.1326C 17.5066 27.2506 17.6275 27.3337 17.7754 27.3173C 18.2351 27.2664 18.0698 27.6121 17.5724 27.7419C 17.1115 27.8621 17.1098 27.8749 17.4982 28.3031C 17.888 28.7327 17.8857 28.7416 17.3787 28.7582C 17.0942 28.7675 16.9825 28.8238 17.1303 28.8833C 17.2781 28.9428 17.3991 29.1822 17.3991 29.4153C 17.3991 29.6483 17.3164 29.788 17.2153 29.7257C 17.1142 29.6634 16.8071 29.8508 16.5328 30.142C 16.2584 30.4333 16.1476 30.6716 16.2865 30.6716C 16.6721 30.6716 16.5881 31.195 16.1039 31.809C 15.6947 32.3279 15.6913 32.3731 16.0457 32.571C 16.4021 32.77 16.4006 32.8055 16.0174 33.2279C 15.7946 33.4735 15.6906 33.6745 15.7864 33.6745C 15.8822 33.6745 15.8069 33.8438 15.6191 34.0508C 15.4313 34.2578 15.2099 34.937 15.127 35.56C 15.0232 36.3408 14.8517 36.7595 14.5751 36.9071C 14.3543 37.0249 14.1738 37.2167 14.1738 37.3332C 14.1738 37.4498 14.4157 37.387 14.7113 37.1938C 15.007 37.0005 15.2489 36.9313 15.2489 37.0399C 15.2489 37.1485 15.007 37.5645 14.7113 37.9642C 14.4157 38.364 14.1738 38.8263 14.1738 38.9916C 14.1738 39.1569 14.0348 39.5484 13.865 39.8615C 13.3743 40.7664 12.8189 42.842 12.942 43.3114C 13.0194 43.6067 12.9273 43.7807 12.6465 43.8696C 12.1965 44.0121 12.1154 44.2976 12.464 44.5125C 12.7506 44.6892 12.3126 45.2568 11.8897 45.2568C 11.7268 45.2568 11.5935 45.4498 11.5935 45.6857C 11.5935 45.9217 11.6902 46.1147 11.8085 46.1147C 11.9268 46.1147 12.0235 46.2595 12.0235 46.4365C 12.0235 46.6134 11.8887 46.7582 11.724 46.7582C 11.3447 46.7582 11.1634 47.2265 11.1634 48.2066C 11.1634 48.6301 11.0019 49.1546 10.8045 49.3722C 10.48 49.7298 10.4778 49.7932 10.7818 50.0325C 11.2654 50.4132 11.0002 52.1329 10.4109 52.438C 10.1743 52.5605 9.66201 52.9852 9.27235 53.3818C 8.88269 53.7785 8.51122 54.0505 8.44687 53.9863C 8.38251 53.9221 8.43524 53.1921 8.56403 52.364C 8.92028 50.0737 8.80313 45.2403 8.39196 45.2645C 8.31974 45.2687 7.98527 45.4969 7.6487 45.7716C 7.04087 46.2675 7.0392 46.2756 7.4002 46.972C 7.67436 47.5008 7.70019 47.7122 7.50533 47.8323C 7.35033 47.9279 7.30611 48.1772 7.39477 48.4559C 7.48898 48.752 7.38171 49.228 7.0987 49.7696C 6.8546 50.2367 6.75091 50.6189 6.86827 50.6189C 7.00397 50.6189 7.00921 50.7556 6.88266 50.9943C 6.7732 51.2007 6.5262 52.1398 6.33377 53.0812C 6.10007 54.2244 5.66493 55.3764 5.02332 56.5505C 3.96693 58.4837 1.77349 61.5144 0.68111 62.5502C -0.0913645 63.2827 -0.217909 63.8402 0.358578 63.9712C 0.868092 64.0869 1.2502 63.8724 2.09442 62.9968L 2.09442 62.9968ZM 8.38327 58.514C 8.39158 58.3596 8.48154 58.0402 8.58318 57.8043C 8.74819 57.4212 8.76959 57.4371 8.78308 57.9525C 8.7914 58.2699 8.70144 58.5893 8.58318 58.6622C 8.46491 58.7351 8.37496 58.6684 8.38327 58.514ZM 9.02006 56.3975C 9.02383 56.2275 9.16896 55.901 9.34259 55.672C 9.56512 55.3785 9.65627 55.3469 9.65145 55.5648C 9.64768 55.7348 9.50255 56.0612 9.32892 56.2902C 9.10639 56.5837 9.01524 56.6154 9.02006 56.3975ZM 9.44327 54.158C 9.44327 53.981 9.54002 53.8363 9.65829 53.8363C 9.77655 53.8363 9.87331 53.981 9.87331 54.158C 9.87331 54.3349 9.77655 54.4797 9.65829 54.4797C 9.54002 54.4797 9.44327 54.3349 9.44327 54.158ZM 14.2542 54.7831C 14.8013 54.4781 15.2489 54.1403 15.2489 54.0324C 15.2489 53.9245 15.3725 53.8363 15.5236 53.8363C 16.1383 53.8363 17.1802 52.0939 17.7777 50.067C 18.0186 49.2499 18.4269 47.6161 18.685 46.4365C 19.4967 42.7265 19.7806 41.5319 20.0867 40.5381C 20.6744 38.6304 21.5053 33.8239 21.2854 33.6046C 20.9377 33.2577 20.4767 33.8118 20.3249 34.7592C 20.2488 35.2333 20.0433 35.6762 19.868 35.7433C 19.6927 35.8103 19.5493 36.0479 19.5493 36.2713C 19.5493 36.4946 19.4525 36.6773 19.3343 36.6773C 19.0215 36.6773 19.0702 37.9086 19.388 38.0373C 19.601 38.1235 19.5995 38.1864 19.3808 38.3404C 19.2269 38.4487 19.167 38.6968 19.2456 38.9009C 19.3292 39.1183 19.2313 39.4382 19.0045 39.6881C 18.7651 39.952 18.72 40.1091 18.8836 40.1091C 19.0272 40.1091 19.0755 40.2207 18.9909 40.3572C 18.9064 40.4936 18.799 41.0486 18.7524 41.5905C 18.7057 42.1323 18.5757 42.6674 18.4634 42.7794C 18.3511 42.8915 18.2592 43.1983 18.2592 43.4612C 18.2592 43.7241 18.114 44.084 17.9366 44.2609C 17.5437 44.6529 17.5238 44.97 17.8829 45.1153C 18.077 45.1939 18.0849 45.2733 17.9115 45.4013C 17.7793 45.4988 17.6033 46.2205 17.5203 47.0051C 17.4017 48.1264 17.2858 48.4536 16.9789 48.5336C 16.6914 48.6086 16.6161 48.7797 16.6932 49.1822C 16.8717 50.1132 16.3795 51.2011 15.6679 51.4486C 15.3192 51.5698 15.0339 51.8016 15.0339 51.9636C 15.0339 52.2284 13.858 53.3639 12.8035 54.1174C 12.5191 54.3207 12.4444 54.542 12.5492 54.8714C 12.7412 55.4746 13.0418 55.459 14.2542 54.7831L 14.2542 54.7831ZM 10.5184 51.9059C 10.5184 51.7879 10.3789 51.6914 10.2085 51.6914C 10.0381 51.6914 9.83889 51.7879 9.7658 51.9059C 9.69271 52.0238 9.83214 52.1204 10.0756 52.1204C 10.3191 52.1204 10.5184 52.0238 10.5184 51.9059ZM 10.8507 39.1536C 11.141 38.8641 11.3785 38.4746 11.3785 38.2881C 11.3785 38.1017 11.5157 37.7353 11.6834 37.4741C 12.0353 36.9259 13.4986 32.4387 14.1465 29.9209C 14.3893 28.9772 14.8383 27.4812 15.1443 26.5964C 15.6525 25.127 16.3917 22.6114 16.7272 21.2093C 16.8011 20.9006 17.2709 20.1767 17.7712 19.6006C 18.921 18.2765 20.1984 16.189 20.4136 15.2822C 20.558 14.6741 20.5245 14.5851 20.1516 14.5851C 19.9091 14.5851 19.6768 14.7655 19.6148 15.0018C 19.5513 15.2442 19.2447 15.4757 18.8824 15.5551C 18.1747 15.7101 18.0379 16.0865 18.6892 16.0865C 19.2189 16.0865 19.2579 16.4879 18.743 16.6404C 18.536 16.7018 18.1103 16.8817 17.7969 17.0404L 17.2271 17.3289L 17.9668 16.0106C 18.3736 15.2856 18.8161 14.4511 18.9501 14.1561C 19.0841 13.8612 19.5029 12.9443 19.8808 12.1185C 20.2587 11.2927 20.7868 10.0863 21.0543 9.43743C 21.3219 8.78861 21.6205 8.06471 21.718 7.82878C 21.8155 7.59284 22.1489 6.77243 22.4588 6.00564C 23.3045 3.91328 23.8364 2.85194 24.183 2.56494C 24.3545 2.42298 24.4948 2.13131 24.4948 1.91678C 24.4948 1.70225 24.5916 1.46707 24.7098 1.39417C 25.0265 1.19895 24.9716 0.428975 24.6411 0.428975C 24.485 0.428975 24.059 0.694399 23.6944 1.01881C 22.3312 2.23187 21.7565 2.70861 20.402 3.74972C 19.6374 4.33747 18.8279 5.0468 18.6031 5.32602C 18.0493 6.01393 17.1179 6.86359 16.9175 6.86359C 16.6392 6.86359 16.7372 5.89072 17.0857 5.19392C 17.2681 4.8292 17.5052 4.01809 17.6127 3.39146C 17.7202 2.76482 17.9097 1.91493 18.0337 1.50283C 18.3458 0.465707 18.3157 5.94017e-15 17.9366 5.94017e-15C 17.7592 5.94017e-15 17.6141 0.0957726 17.6141 0.212831C 17.6141 0.329889 17.3307 0.677584 16.9842 0.985486C 16.6378 1.29339 16.4054 1.67789 16.4677 1.83993C 16.53 2.00196 16.0839 2.81628 15.4764 3.64953C 14.8688 4.48277 14.2882 5.38363 14.1861 5.65145C 14.084 5.91927 13.0249 7.09785 11.8325 8.27051C 10.6401 9.44317 9.66312 10.5083 9.6614 10.6375C 9.65969 10.7667 9.46477 11.0471 9.22824 11.2606C 8.99172 11.4741 8.7982 11.8404 8.7982 12.0745C 8.7982 12.3086 8.64081 12.615 8.44844 12.7553C 8.1823 12.9494 8.15093 13.1089 8.31721 13.4224C 8.43741 13.649 8.506 14.1972 8.46964 14.6406C 8.41739 15.2781 8.49723 15.4969 8.851 15.6857L 9.29845 15.9246L 8.7993 16.3002L 8.30016 16.6758L 8.79235 17.3653C 9.24251 17.9959 9.26129 18.1251 9.01223 18.8778C 8.85715 19.3466 8.81335 19.8694 8.91048 20.0922C 9.00429 20.3074 9.06328 20.5966 9.04157 20.7348C 9.01987 20.8731 9.17393 21.0273 9.38395 21.0775C 9.72184 21.1584 9.71287 21.1912 9.30605 21.3624C 8.8876 21.5386 8.86828 21.6234 9.09103 22.3067C 9.28013 22.8867 9.46775 23.0726 9.91643 23.1242C 10.2358 23.161 10.7048 23.0802 10.9586 22.9447C 11.343 22.7395 11.3997 22.5671 11.298 21.9126C 10.9116 19.4257 10.8164 18.3014 10.9669 18.0029C 11.0599 17.8182 11.0478 17.2874 10.9399 16.8232C 10.832 16.3591 10.7413 14.9858 10.7385 13.7715L 10.7334 11.5637L 11.8623 10.3639C 12.4831 9.70408 13.1605 9.01118 13.3674 8.82417C 13.5744 8.63716 13.7437 8.405 13.7437 8.30827C 13.7437 7.93973 15.0587 6.59758 15.2332 6.78797C 15.3009 6.86186 15.2409 6.96359 15.0997 7.01405C 14.9585 7.0645 14.8927 7.23497 14.9534 7.39287C 15.0141 7.55076 14.8636 8.07153 14.6188 8.55014C 14.374 9.02875 14.1737 9.62025 14.1737 9.86459C 14.1737 10.1089 14.0286 10.3644 13.8512 10.4323C 13.329 10.6322 13.4653 11.3438 14.054 11.4912C 14.7168 11.6571 14.9117 11.5327 15.7077 10.4348C 16.7583 8.98578 18.0418 7.513 19.8939 5.63106C 21.5104 3.98856 22.1296 3.55535 22.1296 4.0669C 22.1296 4.33401 21.2565 5.14574 20.9602 5.15421C 20.8346 5.1578 20.9013 5.25911 21.1082 5.37936C 21.6213 5.67745 21.5809 5.89299 20.9588 6.17569C 20.5675 6.35356 20.4439 6.56456 20.475 7.00163C 20.5047 7.41785 20.3779 7.65968 20.0392 7.83273C 19.674 8.0193 19.6208 8.13601 19.8134 8.32814C 20.006 8.52027 20.0046 8.64012 19.8073 8.83687C 19.6654 8.97843 19.549 9.29212 19.5487 9.53395C 19.5483 9.78143 19.2712 10.1587 18.9148 10.3969C 18.5284 10.6551 18.3732 10.8766 18.5167 10.9651C 18.7415 11.1037 18.7005 11.2965 18.2939 12.0113C 17.7353 12.9936 17.6248 13.2982 17.8273 13.2982C 18.2547 13.2982 18.0336 13.7418 17.5066 13.9417C 16.8832 14.1781 16.8179 14.4794 17.3282 14.7643C 17.6542 14.9463 17.6469 14.99 17.2496 15.2375C 16.978 15.4067 16.8512 15.6603 16.9155 15.9056C 16.9775 16.142 16.9053 16.301 16.7361 16.301C 16.5267 16.301 16.5159 16.3637 16.6944 16.5418C 16.9788 16.8256 16.7966 17.3106 15.7374 19.0893C 15.351 19.7382 15.0347 20.4325 15.0344 20.6322C 15.0341 20.832 14.8398 21.131 14.6026 21.2967C 14.2695 21.5294 14.2011 21.7461 14.302 22.2492C 14.3848 22.6622 14.2979 23.1835 14.0645 23.6743C 13.862 24.0998 13.7468 24.5791 13.8084 24.7392C 14.0114 25.267 13.5073 27.0159 13.0627 27.3266C 12.7193 27.5666 12.677 27.7127 12.855 28.0445C 12.9785 28.2747 12.9967 28.5477 12.8956 28.6548C 12.795 28.7613 12.655 29.2828 12.5845 29.8137C 12.5141 30.3446 12.4244 30.9719 12.3853 31.2079C 12.3462 31.4438 12.031 31.7796 11.685 31.9541C 11.0883 32.2551 11.0808 32.2752 11.5397 32.3444C 12.0935 32.4279 12.1806 32.7698 11.6955 32.9555C 11.4389 33.0538 11.4224 33.1471 11.6199 33.3845C 11.8183 33.623 11.7898 33.7481 11.4864 33.9694C 11.2206 34.1632 11.1344 34.4283 11.2096 34.8206C 11.2802 35.1888 11.2248 35.3904 11.053 35.3904C 10.9068 35.3904 10.7131 35.7041 10.6227 36.0874C 10.5323 36.4708 10.4461 36.8328 10.4313 36.8918C 10.3485 37.2205 10.0343 37.5272 9.87858 37.4313C 9.77957 37.3702 9.63205 36.8379 9.55076 36.2483C 9.46947 35.6587 9.31527 35.1223 9.20809 35.0562C 9.10091 34.9901 9.01321 34.6974 9.01321 34.4058C 9.01321 34.1141 8.86807 33.8199 8.69068 33.752C 8.10133 33.5264 8.28964 32.1515 9.01571 31.3788C 9.77804 30.5674 10.1491 29.6993 9.9718 29.1419C 9.78675 28.5603 9.28705 28.6509 8.92757 29.3311C 8.75613 29.6555 8.17308 30.3843 7.63191 30.9506C 7.0121 31.5992 6.64797 32.1747 6.64797 32.5056C 6.64797 32.8296 6.52435 33.031 6.32544 33.031C 6.14804 33.031 6.0029 33.1758 6.0029 33.3527C 6.0029 33.5297 6.14804 33.6745 6.32544 33.6745C 6.51998 33.6745 6.64797 33.8731 6.64797 34.1749C 6.64797 34.8334 6.83376 34.9921 7.30826 34.7388C 7.56199 34.6033 7.74325 34.6059 7.83023 34.7463C 7.90352 34.8646 7.86851 34.9614 7.75244 34.9614C 7.55621 34.9614 6.98193 36.3048 6.97402 36.7824C 6.97209 36.8992 7.26078 37.0476 7.61557 37.1121C 8.12845 37.2054 8.24988 37.3281 8.20813 37.7113C 8.17887 37.9798 8.29784 38.2476 8.47691 38.3161C 8.65361 38.3837 8.79819 38.5704 8.79819 38.731C 8.79819 38.9967 9.73965 39.6508 10.1519 39.6715C 10.2459 39.6762 10.5604 39.4432 10.8507 39.1536L 10.8507 39.1536ZM 8.53942 36.8904C 8.19439 36.2856 8.19439 36.2483 8.53942 36.2487C 8.79287 36.249 8.9196 36.4473 8.95081 36.8922C 8.97561 37.2459 8.97561 37.5346 8.95081 37.5339C 8.926 37.5333 8.74088 37.2436 8.53942 36.8904ZM 15.8939 4.30596C 15.8939 4.20431 16.0391 4.06559 16.2165 3.99769C 16.3939 3.92979 16.539 3.95739 16.539 4.05904C 16.539 4.16068 16.3939 4.2994 16.2165 4.3673C 16.0391 4.43521 15.8939 4.4076 15.8939 4.30596Z"/>
</svg>
